<svg xmlns="http://www.w3.org/2000/svg" version="1.1" xmlns:xlink="http://www.w3.org/1999/xlink" xmlns:svgjs="http://svgjs.dev/svgjs" width="128" height="128" viewBox="0 0 128 128"><g transform="matrix(0.6167664670658682,0,0,0.6167664670658682,33.5278273323242,35.64028021056245)"><svg viewBox="0 0 75 98" data-background-color="#000000" preserveAspectRatio="xMidYMid meet" height="167" width="128" xmlns="http://www.w3.org/2000/svg" xmlns:xlink="http://www.w3.org/1999/xlink"><g id="tight-bounds" transform="matrix(1,0,0,1,0.7893001405142286,0.43947852807980325)"><svg viewBox="0 0 73.42139974115777 95.481" height="95.481" width="73.42139974115777"><g><svg viewBox="0 0 73.42139974115777 95.481" height="95.481" width="73.42139974115777"><g><svg viewBox="0 0 73.42139974115777 95.481" height="95.481" width="73.42139974115777"><g id="textblocktransform"><svg viewBox="0 0 73.42139974115777 95.481" height="95.481" width="73.42139974115777" id="textblock"><g><svg viewBox="0 0 73.42139974115777 95.481" height="95.481" width="73.42139974115777"><g><svg viewBox="0 0 73.42139974115777 95.481" height="95.481" width="73.42139974115777"><g><svg xmlns="http://www.w3.org/2000/svg" data-name="Layer 2" viewBox="13.779793205414826 8.247642973856925 36.50041358917035 47.46703280234436" x="0" y="0" height="95.481" width="73.42139974115777" class="icon-icon-0" data-fill-palette-color="accent" id="icon-0"><path d="M50.15 48.12L46.15 38.06A18.25 18.25 0 1 0 17.91 38.06L13.91 48.12A1.41 1.41 0 0 0 15.84 49.91L17.84 48.91A2.09 2.09 0 0 1 20.58 49.78L22.45 53.22A2.08 2.08 0 0 0 25.96 53.44 2.08 2.08 0 0 1 29.34 53.44L30.34 54.84A2.07 2.07 0 0 0 33.72 54.84L34.72 53.44A2.08 2.08 0 0 1 38.1 53.44 2.05 2.05 0 0 0 39.78 54.3 2.08 2.08 0 0 0 41.61 53.22L43.48 49.78A2.09 2.09 0 0 1 46.22 48.91L48.22 49.91A1.41 1.41 0 0 0 50.15 48.12M20 21A4 4 0 0 1 28 21ZM36 21A4 4 0 0 1 44 21Z" fill="#59047b" data-fill-palette-color="accent"></path></svg></g></svg></g></svg></g></svg></g></svg></g><g></g></svg></g><defs></defs></svg><rect width="73.42139974115777" height="95.481" fill="none" stroke="none" visibility="hidden"></rect></g></svg></g></svg>